<svg width="32" height="35" viewBox="0 0 32 35" fill="none" xmlns="http://www.w3.org/2000/svg">
<path d="M31.7303 19.9182L28.9352 9.95014C28.1159 7.02992 26.3354 4.46494 23.8766 2.66291C21.4178 0.860887 18.4219 -0.0747693 15.365 0.00467171C12.3082 0.0841128 9.36581 1.17409 7.00566 3.10135C4.64551 5.02861 3.00302 7.68255 2.33925 10.6413L0.175269 20.2871C-0.0637611 21.3529 -0.0582347 22.4583 0.191441 23.5218C0.441116 24.5852 0.928565 25.5794 1.6178 26.4311C2.30703 27.2828 3.18045 27.9702 4.17358 28.4425C5.1667 28.9149 6.25417 29.1601 7.35569 29.16H8.99449C9.33213 30.8082 10.2342 32.2899 11.5479 33.3543C12.8616 34.4186 14.5062 35 16.2029 35C17.8996 35 19.5441 34.4186 20.8578 33.3543C22.1715 32.2899 23.0736 30.8082 23.4112 29.16H24.644C25.7779 29.1601 26.8965 28.9003 27.9124 28.401C28.9283 27.9016 29.814 27.1762 30.5002 26.2814C31.1864 25.3866 31.6546 24.3467 31.8683 23.2428C32.0819 22.139 32.0352 21.0011 31.7317 19.9182H31.7303ZM16.2029 32.0764C15.2933 32.0726 14.4072 31.7904 13.6657 31.2684C12.9241 30.7464 12.3634 30.01 12.0603 29.16H20.3455C20.0423 30.01 19.4816 30.7464 18.7401 31.2684C17.9985 31.7904 17.1124 32.0726 16.2029 32.0764ZM28.157 24.5158C27.7471 25.0548 27.216 25.4916 26.6059 25.7916C25.9958 26.0916 25.3235 26.2464 24.6425 26.2437H7.35569C6.69485 26.2436 6.04247 26.0964 5.44671 25.8129C4.85094 25.5295 4.327 25.117 3.91356 24.606C3.50012 24.095 3.20773 23.4985 3.05797 22.8605C2.90822 22.2225 2.90492 21.5593 3.04832 20.9199L5.21083 11.2727C5.73212 8.94868 7.0222 6.86409 8.876 5.35028C10.7298 3.83648 13.0409 2.98036 15.442 2.91801C17.843 2.85566 20.1962 3.59067 22.1274 5.00618C24.0586 6.4217 25.4571 8.43649 26.1004 10.7303L28.8955 20.6983C29.0802 21.3477 29.1096 22.0309 28.9814 22.6935C28.8532 23.3562 28.5709 23.9801 28.157 24.5158Z" fill="black"/>
<path d="M28.157 24.5158C27.7471 25.0548 27.216 25.4916 26.6059 25.7916C25.9958 26.0916 25.3235 26.2464 24.6425 26.2437H7.35569C6.69485 26.2436 6.04247 26.0964 5.44671 25.8129C4.85094 25.5295 4.327 25.117 3.91356 24.606C3.50012 24.095 3.20773 23.4985 3.05797 22.8605C2.90822 22.2225 2.90492 21.5593 3.04832 20.9199L5.21083 11.2727C5.73212 8.94868 7.0222 6.86409 8.876 5.35028C10.7298 3.83648 13.0409 2.98036 15.442 2.91801C17.843 2.85566 20.1962 3.59067 22.1274 5.00618C24.0586 6.4217 25.4571 8.43649 26.1004 10.7303L28.8955 20.6983C29.0802 21.3477 29.1096 22.0309 28.9814 22.6935C28.8532 23.3562 28.5709 23.9801 28.157 24.5158Z" fill="#FFAE33"/>
<path d="M16.2029 32.0764C15.2933 32.0726 14.4072 31.7904 13.6657 31.2684C12.9241 30.7464 12.3634 30.01 12.0603 29.16H20.3455C20.0423 30.01 19.4816 30.7464 18.7401 31.2684C17.9985 31.7904 17.1124 32.0726 16.2029 32.0764Z" fill="#FFAE33"/>
</svg>
