<svg width="20" height="22" viewBox="0 0 20 22" fill="none" xmlns="http://www.w3.org/2000/svg">
<path fill-rule="evenodd" clip-rule="evenodd" d="M16.364 18.3965C12.8492 21.8678 7.15076 21.8678 3.63604 18.3965C1.87868 16.6608 1 14.386 1 12.1111C0.999996 9.83625 1.87868 7.56138 3.63604 5.82571C3.63604 5.82571 4.37505 7.66662 6.62505 8.77773C6.62505 6.55551 7.18755 3.22217 9.98412 1C12.25 3.22222 14.6026 4.08605 16.364 5.82571C18.1213 7.56138 19 9.83625 19 12.1111C19 14.386 18.1213 16.6608 16.364 18.3965ZM7.61351 15.5792C8.93153 16.881 11.0685 16.881 12.3865 15.5792C13.0455 14.9283 13.375 14.0753 13.375 13.2222C13.375 12.3691 13.0455 11.516 12.3865 10.8652C11.7316 10.2184 10.8747 9.89297 10.0164 9.88888L8.87494 13.2222L6.625 13.2222C6.62501 14.0753 6.95451 14.9283 7.61351 15.5792Z" fill="#DE0000"/>
<path d="M12.3865 15.5792C11.0685 16.881 8.93153 16.881 7.61351 15.5792C6.95451 14.9283 6.62501 14.0753 6.625 13.2222L8.87494 13.2222L10.0164 9.88888C10.8747 9.89297 11.7316 10.2184 12.3865 10.8652C13.0455 11.516 13.375 12.3691 13.375 13.2222C13.375 14.0753 13.0455 14.9283 12.3865 15.5792Z" fill="#FF9A00"/>
<path fill-rule="evenodd" clip-rule="evenodd" d="M16.364 18.3965C12.8492 21.8678 7.15076 21.8678 3.63604 18.3965C1.87868 16.6608 1 14.386 1 12.1111C0.999996 9.83625 1.87868 7.56138 3.63604 5.82571C3.63604 5.82571 4.37505 7.66662 6.62505 8.77773C6.62505 6.55551 7.18755 3.22217 9.98412 1C12.25 3.22222 14.6026 4.08605 16.364 5.82571C18.1213 7.56138 19 9.83625 19 12.1111C19 14.386 18.1213 16.6608 16.364 18.3965ZM7.61351 15.5792C8.93153 16.881 11.0685 16.881 12.3865 15.5792C13.0455 14.9283 13.375 14.0753 13.375 13.2222C13.375 12.3691 13.0455 11.516 12.3865 10.8652C11.7316 10.2184 10.8747 9.89297 10.0164 9.88888L8.87494 13.2222L6.625 13.2222C6.62501 14.0753 6.95451 14.9283 7.61351 15.5792Z" stroke="black" stroke-width="2" stroke-linecap="round" stroke-linejoin="round"/>
<path d="M12.3865 15.5792C11.0685 16.881 8.93153 16.881 7.61351 15.5792C6.95451 14.9283 6.62501 14.0753 6.625 13.2222L8.87494 13.2222L10.0164 9.88888C10.8747 9.89297 11.7316 10.2184 12.3865 10.8652C13.0455 11.516 13.375 12.3691 13.375 13.2222C13.375 14.0753 13.0455 14.9283 12.3865 15.5792Z" stroke="black" stroke-width="2" stroke-linecap="round" stroke-linejoin="round"/>
</svg>
