<svg width="20" height="20" viewBox="0 0 20 20" fill="none" xmlns="http://www.w3.org/2000/svg">
<path d="M12.5092 5.42004L12.789 3.43619C12.8623 2.91246 12.8137 2.37534 12.6481 1.88111C12.4825 1.38688 12.206 0.953733 11.8477 0.627052C11.4894 0.300371 11.0624 0.092184 10.6115 0.0243048C10.1605 -0.0435744 9.70225 0.0313531 9.28464 0.241236C8.7075 0.543538 8.24385 1.07986 7.97968 1.75075L6.42655 5.42004H2.49833C1.83573 5.42004 1.20027 5.72726 0.731745 6.27411C0.263217 6.82097 0 7.56266 0 8.33603L0 17.084C0 17.8574 0.263217 18.5991 0.731745 19.1459C1.20027 19.6928 1.83573 20 2.49833 20H18.3361L19.9867 9.27207L20 5.42004H12.5092ZM1.66556 17.084V8.33603C1.66556 8.07824 1.75329 7.83101 1.90947 7.64873C2.06565 7.46644 2.27747 7.36403 2.49833 7.36403H5.82945V18.056H2.49833C2.27747 18.056 2.06565 17.9536 1.90947 17.7713C1.75329 17.589 1.66556 17.3418 1.66556 17.084ZM18.3211 9.01643L16.9304 18.056H7.495V7.27558L9.50949 2.51279C9.5777 2.36873 9.67424 2.24563 9.79115 2.15359C9.90807 2.06156 10.042 2.00323 10.182 1.9834C10.322 1.96357 10.464 1.9828 10.5964 2.03952C10.7288 2.09623 10.8478 2.18881 10.9435 2.30965C11.0254 2.42069 11.0852 2.55145 11.1187 2.69258C11.1523 2.83372 11.1587 2.98175 11.1376 3.12612L10.5388 7.36403H18.3211V9.01643Z" fill="black"/>
<path d="M18.3211 9.01643L16.9304 18.056H7.495V7.27558L9.50949 2.51279C9.5777 2.36873 9.67424 2.24563 9.79115 2.15359C9.90807 2.06156 10.042 2.00323 10.182 1.9834C10.322 1.96357 10.464 1.9828 10.5964 2.03952C10.7288 2.09623 10.8478 2.18881 10.9435 2.30965C11.0254 2.42069 11.0852 2.55145 11.1187 2.69258C11.1523 2.83372 11.1587 2.98175 11.1376 3.12612L10.5388 7.36403H18.3211V9.01643Z" fill="#FFCD80"/>
<path d="M1.66556 17.084V8.33603C1.66556 8.07824 1.75329 7.83101 1.90947 7.64873C2.06565 7.46644 2.27747 7.36403 2.49833 7.36403H5.82945V18.056H2.49833C2.27747 18.056 2.06565 17.9536 1.90947 17.7713C1.75329 17.589 1.66556 17.3418 1.66556 17.084Z" fill="#5CBAFF"/>
</svg>
